# xmcd
#
# Track frame offsets:
#	150
#	16880
#	31182
#	50405
#	66525
#	86437
#	103542
#	122060
#	138740
#	158000
#	174210
#
# Disc length: 2495 seconds
#
# Revision: 5
# Processed by: cddbd v1.5.2PL0 Copyright (c) Steve Scherf et al.
# Submitted via: EasyCDDAExtractor 15.3.0.1
#
DISCID=8809bd0b
DTITLE=Lucero - Piel De Angel
DYEAR=1997
DGENRE=Latin
TTITLE0=La Vida Aqui Esta
TTITLE1=Si Tu Llegaras A Amarme
TTITLE2=Historias De Amores
TTITLE3=Toda La Noche
TTITLE4=Al Centro De Tus Ojos
TTITLE5=Quiero
TTITLE6=Inventario
TTITLE7=Tacticas De Guerra
TTITLE8=Piel De Angel
TTITLE9=Si Me Extrañas
TTITLE10=Una Vez Mas
EXTD=
EXTT0=
EXTT1=
EXTT2=
EXTT3=
EXTT4=
EXTT5=
EXTT6=
EXTT7=
EXTT8=
EXTT9=
EXTT10=
PLAYORDER=
